<svg width="360" height="269" viewBox="0 0 360 269" fill="none" xmlns="http://www.w3.org/2000/svg">
<mask id="mask0_19_467" style="mask-type:luminance" maskUnits="userSpaceOnUse" x="30" y="189" width="300" height="50">
<path d="M30 189.503H329.608V238.525H30V189.503Z" fill="white"/>
</mask>
<g mask="url(#mask0_19_467)">
<g opacity="0.5">
<path d="M329.608 214.014C329.608 227.552 262.539 238.526 179.804 238.526C97.0697 238.526 29.9997 227.552 29.9997 214.014C29.9997 200.477 97.0697 189.503 179.804 189.503C262.539 189.503 329.608 200.477 329.608 214.014Z" fill="#BF5B51"/>
</g>
</g>
<path d="M276.671 132.946C276.671 132.946 307.241 131.992 310.087 166.409C312.933 200.826 298.839 202.005 290.282 176.533C281.725 151.061 284.77 143.675 276.671 132.946Z" fill="#E7C19C"/>
<mask id="mask1_19_467" style="mask-type:luminance" maskUnits="userSpaceOnUse" x="278" y="133" width="33" height="62">
<path d="M278.84 133.236H310.46V194.121H278.84V133.236Z" fill="white"/>
</mask>
<g mask="url(#mask1_19_467)">
<g opacity="0.5">
<path d="M307.977 155.562C307.212 156.942 305.677 157.963 304.065 158.072C301.684 158.231 299.412 156.804 297.974 154.9C296.537 152.995 295.798 150.664 295.176 148.361C294.71 146.637 294.293 144.86 294.459 143.082C294.596 141.617 295.222 140.165 296.294 139.189C290.687 135.208 284.664 133.756 280.788 133.236C279.875 134.039 279.271 135.073 278.84 136.209C284.238 145.406 282.616 153.713 290.282 176.533C294.263 188.384 299.441 194.457 303.555 194.108C303.618 194.1 303.681 194.094 303.744 194.086C308.372 193.466 311.589 184.569 310.087 166.409C309.748 162.307 309.005 158.721 307.977 155.562Z" fill="#BF5B51"/>
</g>
</g>
<path d="M282.557 136.602C284.823 141.155 285.73 145.67 286.861 151.305C288.061 157.287 289.554 164.729 293.19 175.556C297.323 187.862 301.902 191.305 303.394 191.045C305.207 190.671 308.48 184.219 307.029 166.662C305.179 144.295 290.832 138.233 282.557 136.602ZM303.206 197.201C297.402 197.201 291.574 190.012 287.375 177.509C283.615 166.316 282.077 158.662 280.844 152.513C279.32 144.913 278.398 140.326 274.221 134.794C273.531 133.879 273.408 132.655 273.904 131.621C274.399 130.586 275.429 129.915 276.575 129.879C276.915 129.869 310.094 129.26 313.144 166.156C314.672 184.635 311.649 195.609 304.633 197.054C304.157 197.153 303.682 197.201 303.206 197.201Z" fill="#5B1310"/>
<path d="M188.718 225.801C179.103 228.054 168.822 228.098 159.091 229.311C144.715 231.132 129.472 233.82 115.475 228.75C110.352 226.874 106.586 223.525 104.205 219.447C104.205 219.447 73.2398 226.395 56.2657 199.687C39.2916 172.98 71.707 150.37 71.707 150.37C124.166 188.183 182.431 174.39 194.879 104.4C194.879 104.4 211.066 83.9964 249.554 94.2066C300.672 107.773 301.034 159.296 298.166 190.912C295.328 222.498 239.998 235.356 188.718 225.801Z" fill="#E7C19C"/>
<mask id="mask2_19_467" style="mask-type:luminance" maskUnits="userSpaceOnUse" x="64" y="91" width="236" height="130">
<path d="M64.9619 91.3457H299.126V220.883H64.9619V91.3457Z" fill="white"/>
</mask>
<g mask="url(#mask2_19_467)">
<g opacity="0.5">
<path d="M150.573 166.965C127.482 175.635 98.8265 169.917 71.7073 150.37C71.7073 150.37 68.6792 152.488 64.9623 156.179C95.0673 176.976 126.817 180.863 150.573 166.965Z" fill="#FFF6EE"/>
<path d="M249.554 94.2065C225.468 87.8168 210.117 93.4165 202 98.5024C210.83 95.44 223.501 93.9452 240.566 98.472C291.683 112.038 292.046 163.562 289.178 195.178C288.206 205.992 281.077 214.608 270.069 220.883C286.094 214.515 296.951 204.437 298.166 190.912C301.034 159.296 300.672 107.772 249.554 94.2065Z" fill="#FFF6EE"/>
</g>
</g>
<mask id="mask3_19_467" style="mask-type:luminance" maskUnits="userSpaceOnUse" x="100" y="161" width="118" height="72">
<path d="M100.825 161.715H217.911V232.665H100.825V161.715Z" fill="white"/>
</mask>
<g mask="url(#mask3_19_467)">
<g opacity="0.5">
<path d="M209.952 162.665C198.893 160.174 187.345 162.944 176.658 166.786C165.972 170.628 155.573 175.576 144.425 177.638C138.164 178.797 131.759 179.024 125.522 180.312C119.285 181.6 113.023 184.112 108.78 188.953C104.992 193.276 103.189 198.99 101.485 204.521C99.9515 209.499 101.402 214.926 102.681 219.975C102.899 220.836 105.049 221.53 105.049 221.53C107.578 225.515 111.464 228.718 116.652 230.398C124.997 233.069 133.677 233.028 142.323 232.065C141.715 231.436 141.02 230.893 140.276 230.484C137.394 228.904 134.008 228.71 130.774 228.201C127.54 227.691 124.114 226.677 122.114 224.036C119.031 219.964 120.874 213.619 124.77 210.344C128.666 207.069 133.924 206.136 138.942 205.591C147.706 204.639 156.555 204.51 165.34 205.207C167.948 205.414 170.976 205.974 172.171 208.347C173.467 210.925 171.811 213.937 171.28 216.785C170.594 220.472 172.023 224.488 174.868 226.863C175.066 227.029 175.285 227.166 175.495 227.314C180.316 226.692 185.115 225.939 189.738 224.669C189.993 224.707 190.248 224.735 190.503 224.772C191.234 222.109 191.343 219.21 191.453 216.416C191.615 212.3 191.984 207.897 194.505 204.676C198.273 199.864 205.636 199.223 209.311 194.336C210.528 192.717 211.226 190.764 211.906 188.846C213.51 184.319 215.114 179.792 216.717 175.266C217.546 172.926 218.381 170.364 217.598 168.01C216.558 164.885 213.11 163.377 209.952 162.665Z" fill="#BF5B51"/>
</g>
</g>
<mask id="mask4_19_467" style="mask-type:luminance" maskUnits="userSpaceOnUse" x="188" y="153" width="69" height="75">
<path d="M188.379 153.61H256.229V227.881H188.379V153.61Z" fill="white"/>
</mask>
<g mask="url(#mask4_19_467)">
<g opacity="0.5">
<path d="M256.229 156.588C256.229 156.588 221.539 148.651 222.112 198.439C222.112 198.439 194.956 201.356 200.91 227.88L188.38 223.47C188.38 223.47 187.964 198.427 210.802 196.24C210.802 196.24 211.535 140.282 256.229 156.588Z" fill="#BF5B51"/>
</g>
</g>
<mask id="mask5_19_467" style="mask-type:luminance" maskUnits="userSpaceOnUse" x="51" y="150" width="74" height="69">
<path d="M51.3479 150.37H124.243V218.835H51.3479V150.37Z" fill="white"/>
</mask>
<g mask="url(#mask5_19_467)">
<g opacity="0.5">
<path d="M73.9164 190.601C92.666 197.088 103.996 193.661 103.996 193.661L124.243 171.372L123.371 170.721C106.736 169.584 88.9135 162.773 71.7071 150.37C71.7071 150.37 39.2912 172.98 56.2658 199.688C63.7162 211.411 73.8617 216.647 82.9019 218.835C61.9996 207.406 55.1672 184.114 73.9164 190.601Z" fill="#BF5B51"/>
</g>
</g>
<path d="M209.338 195.745C206.217 164.192 229.837 136.971 260.465 157.583C261.556 158.279 260.574 160.017 259.416 159.432C230.76 145.469 213.459 167.45 215.45 195.202C215.758 199.205 209.744 199.773 209.338 195.745Z" fill="#5B1310"/>
<path d="M104.877 222.44C67.0984 230.243 29.4484 191.327 59.145 157.977C62.3887 154.215 65.823 150.89 69.9517 147.854C71.0095 147.076 72.4127 147.104 73.4268 147.827C94.4959 163.057 122.404 173.327 147.898 164.687C160.224 160.506 170.742 151.841 177.94 140.866C185.227 129.888 189.428 116.983 191.859 103.863C191.927 103.361 192.145 102.849 192.476 102.493C211.749 82.5499 245.168 85.5624 267.224 98.7237C299.468 120.89 304.365 164.869 300.052 200.753C296.78 219.912 279.569 220.58 264.1 224.041C245.349 227.826 226.455 231.484 207.21 232.127C200.038 231.921 193.512 232.647 186.798 228.192C186.262 227.821 185.909 227.277 185.774 226.687C184.372 221.094 185.053 215.038 187.51 209.841C194.559 194.05 215.27 190.07 229.333 198.366C229.806 198.615 229.987 199.2 229.738 199.673C229.517 200.091 229.029 200.28 228.593 200.146C223.915 198.708 219.105 197.962 214.448 198.263C203.079 198.856 193.235 207.538 191.737 218.779C191.466 220.911 191.487 223.047 191.725 225.191L190.667 223.432C192.168 224.599 195.144 225.342 198.029 225.644C207.168 226.575 216.491 225.551 225.681 224.473C238.111 222.881 250.511 220.599 262.848 218.034C273.502 215.064 288.229 215.781 292.927 203.722C293.412 202.472 293.787 201.175 293.984 199.843C295.398 189.128 295.77 178.177 294.812 167.409C292.822 137.851 278.888 104.001 247.437 96.874C230.64 92.5335 209.92 93.1605 197.283 106.307L197.9 104.938C193.364 132.407 177.992 161.275 149.879 170.494C122.253 179.852 92.4629 169.126 69.9137 152.859L73.4619 152.886C53.9808 167.495 46.2601 189.406 66.6932 207.148C76.5119 215.979 91.0977 218.718 103.786 216.409C107.782 215.778 108.773 221.659 104.877 222.44Z" fill="#5B1310"/>
<path d="M133.987 234.751C127.4 234.751 120.84 233.957 114.428 231.635C108.883 229.604 104.435 225.925 101.554 220.995C94.9058 209.536 98.4203 194.514 109.726 186.044C111.083 185.028 113.005 185.305 114.021 186.659C115.037 188.015 114.761 189.939 113.405 190.954C103.361 198.48 102.536 210.459 106.857 217.907C109.004 221.583 112.351 224.338 116.529 225.869C128.552 230.221 141.889 228.468 154.787 226.777L158.706 226.267C162.176 225.835 165.739 225.545 169.186 225.267C175.478 224.756 181.984 224.227 188.018 222.815C189.659 222.425 191.318 223.451 191.705 225.102C192.091 226.752 191.067 228.402 189.418 228.789C182.937 230.306 176.199 230.853 169.684 231.382C166.301 231.656 162.803 231.941 159.47 232.356L155.587 232.86C148.461 233.797 141.207 234.751 133.987 234.751Z" fill="#5B1310"/>
<path d="M139.098 41.443C139.098 41.443 169.112 29.1856 180.078 34.2814C191.043 39.3767 203.425 62.2651 197.439 87.993" fill="#E7C19C"/>
<mask id="mask6_19_467" style="mask-type:luminance" maskUnits="userSpaceOnUse" x="139" y="33" width="61" height="55">
<path d="M139.098 33.0414H199.002V87.9932H139.098V33.0414Z" fill="white"/>
</mask>
<g mask="url(#mask6_19_467)">
<g opacity="0.5">
<path d="M180.078 34.2813C169.113 29.186 139.098 41.4429 139.098 41.4429L139.184 41.5113C148.639 38.2304 165.912 33.157 173.668 36.7608C183.669 41.4077 194.802 60.8675 192.149 83.772L197.439 87.9929C203.425 62.265 191.043 39.3766 180.078 34.2813Z" fill="#FFF6EE"/>
</g>
</g>
<path d="M197.442 91.0618C197.212 91.0618 196.978 91.0362 196.744 90.9825C195.094 90.5973 194.068 88.9495 194.451 87.2989C199.958 63.6344 188.85 41.7402 178.784 37.0634C171.694 33.7678 151.388 39.7419 140.258 44.2838C138.694 44.9208 136.898 44.1717 136.258 42.6033C135.618 41.0348 136.37 39.2446 137.939 38.6033C141.138 37.2971 169.535 26.0006 181.37 31.4997C193.565 37.1655 206.715 61.6641 200.428 88.6887C200.099 90.1061 198.837 91.0618 197.442 91.0618Z" fill="#5B1310"/>
<path d="M97.1551 50.975C97.1551 50.975 119.887 38.4958 145.643 40.8166C163.761 42.4497 179.793 53.3058 188.697 69.1689C193.764 78.1968 198.256 86.771 198.256 86.771C198.256 86.771 225.624 99.8962 226.864 134.69C228.104 169.485 196.719 194.327 142.411 196.508C88.1025 198.69 54.1571 175.988 51.8914 151.376C35.3096 78.6252 97.1551 50.975 97.1551 50.975Z" fill="#E7C19C"/>
<mask id="mask7_19_467" style="mask-type:luminance" maskUnits="userSpaceOnUse" x="89" y="40" width="138" height="146">
<path d="M89.7303 40.5288H226.899V185.101H89.7303V40.5288Z" fill="white"/>
</mask>
<g mask="url(#mask7_19_467)">
<g opacity="0.5">
<path d="M226.864 134.69C225.624 99.8961 198.257 86.7714 198.257 86.7714C198.257 86.7714 193.765 78.1972 188.697 69.1693C179.793 53.3057 163.761 42.4496 145.643 40.817C119.887 38.4957 97.1553 50.9749 97.1553 50.9749C97.1553 50.9749 94.1889 52.3016 89.7305 55.1369C91.6519 54.1142 113.436 42.8633 138.029 45.0797C156.147 46.7123 172.179 57.5689 181.083 73.432C186.151 82.4593 190.643 91.034 190.643 91.034C190.643 91.034 218.01 104.159 219.25 138.953C219.93 158.029 210.783 174.103 193.448 185.102C215.712 174.227 227.638 156.396 226.864 134.69Z" fill="#FFF6EE"/>
</g>
</g>
<path d="M222.868 141.172C214.399 137.864 204.613 138.085 196.301 141.771C191.298 143.989 186.18 147.495 180.858 146.222C177.899 145.515 175.499 143.417 172.795 142.022C168.188 139.644 159.613 142.308 156.6 146.324C154.774 148.759 153.528 151.694 151.172 153.621C146.937 157.086 140.803 156.162 135.334 156.345C126.246 156.651 117.342 160.717 111.161 167.385C106.637 172.265 103.614 178.492 102.468 185.039C101.929 188.12 101.902 190.336 103.04 191.9C114.851 194.719 128.528 196.078 143.82 195.464C156.456 194.956 167.834 193.207 177.866 190.406C177.955 190.229 178.008 190.035 178.084 189.851C180.668 189.251 183.282 188.586 185.943 187.816C210.015 179.02 224.655 163.33 227.702 143.537C226.155 142.626 224.543 141.825 222.868 141.172Z" fill="white"/>
<mask id="mask8_19_467" style="mask-type:luminance" maskUnits="userSpaceOnUse" x="49" y="71" width="151" height="126">
<path d="M49.067 71.163H199.75V196.654H49.067V71.163Z" fill="white"/>
</mask>
<g mask="url(#mask8_19_467)">
<g opacity="0.5">
<path d="M199.75 181.675C145.983 202.129 114.072 191.66 96.4725 178.657C86.5378 171.317 84.7979 156.986 93.0216 147.77C99.0617 141 101.584 131.533 96.6188 120.182C84.4592 92.3853 105.894 79.2539 105.894 79.2539L70.6923 71.1632C56.3198 86.9859 43.1119 112.856 51.8913 151.376C54.1571 175.988 88.103 198.69 142.411 196.508C166.191 195.553 185.574 190.252 199.75 181.675Z" fill="#BF5B51"/>
</g>
</g>
<path d="M139.169 43.5995C117.243 43.5995 98.8308 53.5555 98.6317 53.6647C98.5595 53.7037 98.4831 53.7412 98.4099 53.7754C95.9798 54.8674 39.0753 81.341 54.8828 150.694C54.9127 150.826 54.9336 150.959 54.9455 151.094C56.9861 173.243 88.3238 195.598 142.288 193.444C193.781 191.374 225.014 168.903 223.798 134.8C222.642 102.376 197.973 90.0445 196.923 89.5353C196.333 89.2479 195.842 88.7772 195.538 88.1943C195.493 88.1093 191.008 79.5536 186.021 70.6721C177.457 55.4113 162.259 45.394 145.367 43.8735C143.281 43.685 141.207 43.5995 139.169 43.5995ZM136.256 199.7C95.0122 199.702 51.9554 183.555 48.856 151.863C40.097 113.161 53.3115 87.0368 65.9517 71.9256C79.1767 56.1138 94.1971 48.9565 95.7851 48.2283C97.7492 47.1691 120.164 35.4456 145.919 37.7617C164.825 39.4646 181.818 50.6446 191.372 67.6682C195.483 74.9893 199.255 82.0901 200.523 84.4912C205.602 87.2553 228.756 101.632 229.93 134.581C231.259 171.877 196.954 197.387 142.533 199.574C140.451 199.658 138.354 199.7 136.256 199.7Z" fill="#5B1310"/>
<path d="M153.434 133.357C154.208 143.069 147.955 151.491 139.469 152.167C130.983 152.843 123.477 145.516 122.703 135.803C121.93 126.091 128.182 117.669 136.669 116.993C145.155 116.317 152.661 123.644 153.434 133.357Z" fill="#5B1310"/>
<path d="M149.175 127.556C149.443 130.926 147.274 133.847 144.33 134.081C141.386 134.316 138.783 131.774 138.514 128.405C138.246 125.035 140.415 122.114 143.359 121.88C146.302 121.645 148.906 124.187 149.175 127.556Z" fill="white"/>
<path d="M138.629 136.213C138.763 137.893 137.681 139.349 136.214 139.466C134.746 139.583 133.449 138.316 133.315 136.637C133.181 134.957 134.262 133.501 135.73 133.384C137.197 133.267 138.495 134.534 138.629 136.213Z" fill="white"/>
<path d="M145.15 138.216C145.26 139.6 144.369 140.8 143.16 140.897C141.951 140.993 140.881 139.949 140.771 138.565C140.661 137.181 141.551 135.981 142.761 135.884C143.97 135.788 145.04 136.832 145.15 138.216Z" fill="white"/>
<path d="M198.44 117.495C199.213 127.207 192.96 135.629 184.475 136.305C175.988 136.981 168.482 129.654 167.708 119.941C166.935 110.229 173.188 101.807 181.674 101.131C190.16 100.455 197.666 107.782 198.44 117.495Z" fill="#5B1310"/>
<path d="M194.18 111.694C194.448 115.064 192.279 117.985 189.335 118.219C186.392 118.454 183.788 115.912 183.519 112.543C183.251 109.173 185.42 106.252 188.364 106.017C191.307 105.783 193.911 108.325 194.18 111.694Z" fill="white"/>
<path d="M183.634 120.351C183.768 122.031 182.687 123.487 181.219 123.604C179.751 123.721 178.454 122.454 178.32 120.774C178.186 119.095 179.267 117.639 180.735 117.522C182.202 117.405 183.5 118.672 183.634 120.351Z" fill="white"/>
<path d="M190.155 122.354C190.265 123.738 189.374 124.938 188.165 125.035C186.956 125.131 185.886 124.087 185.776 122.703C185.666 121.319 186.557 120.119 187.766 120.022C188.975 119.926 190.045 120.97 190.155 122.354Z" fill="white"/>
<path d="M103.987 55.3039C103.987 55.3039 76.9308 43.9315 63.2123 53.8775C49.4939 63.8235 42.3779 88.7378 40.1373 94.5727C37.8967 100.408 17.1231 129.852 62.4576 137.064C65.08 137.352 67.4878 137.331 69.6842 137.091C79.5405 136.011 86.8146 127.353 86.3125 117.451C85.9249 109.804 86.1586 99.6898 89.2091 93.1249C94.6683 81.3772 105.894 79.2539 105.894 79.2539" fill="#E7C19C"/>
<mask id="mask9_19_467" style="mask-type:luminance" maskUnits="userSpaceOnUse" x="33" y="49" width="67" height="89">
<path d="M33.4518 49.7984H99.9452V137.275H33.4518V49.7984Z" fill="white"/>
</mask>
<g mask="url(#mask9_19_467)">
<g opacity="0.5">
<path d="M86.3128 117.45C85.9252 109.804 86.1584 99.6898 89.2093 93.1248C91.876 87.3868 95.914 83.9554 99.352 81.9357C73.949 84.5506 78.6762 115.108 61.6332 112.008C44.5902 108.907 56.8172 85.3728 65.4446 67.8044C74.0716 50.2356 99.9453 55.5841 99.9453 55.5841L96.1795 52.6519C87.1208 50.0399 72.2751 47.3072 63.2126 53.8774C49.4941 63.8235 42.3781 88.7377 40.1376 94.5726C37.8965 100.407 17.1229 129.852 62.4578 137.064C65.0803 137.352 67.4876 137.331 69.6845 137.091C79.5407 136.011 86.8149 127.353 86.3128 117.45Z" fill="#BF5B51"/>
</g>
</g>
<path d="M103.65 56.1067C90.9973 53.1974 74.9527 48.6317 63.7859 57.1209C53.1972 66.5097 48.4767 80.4647 43.8716 93.7956C43.5505 94.8943 42.8489 96.6133 42.3767 97.5586C31.8218 116.818 36.472 128.116 58.2413 132.787C68.6043 135.951 80.8479 132.918 83.0092 120.986C83.5687 113.699 82.718 106.405 84.6327 99.1232C86.6026 88.8637 95.3601 79.9422 105.775 78.6208C106.544 78.5111 106.792 79.7019 106.014 79.8871C89.3433 86.1229 88.2247 102.598 89.3842 117.76C90.0335 133.295 75.0658 143.329 60.5654 140.154C49.1882 138.229 35.1772 133.8 31.0409 121.567C27.372 109.813 34.5183 99.3631 37.7374 91.6424C40.9741 82.4474 44.5864 73.0063 50.0361 64.4188C59.7841 48.2792 72.4822 44.2336 90.4049 49.1033C91.8589 49.3342 109.473 55.0527 103.65 56.1067Z" fill="#5B1310"/>
<path d="M152.993 169.848C152.519 169.848 152.037 169.739 151.586 169.505C150.082 168.728 149.492 166.876 150.271 165.371C152.443 161.17 155.337 158.633 158.874 157.828C162.451 157.016 166.387 158.116 170.234 161.019C171.585 162.041 171.854 163.964 170.834 165.317C169.814 166.665 167.89 166.938 166.536 165.917C164.895 164.677 162.465 163.309 160.234 163.811C158.543 164.196 157.024 165.669 155.72 168.19C155.175 169.245 154.104 169.848 152.993 169.848Z" fill="#5B1310"/>
<path d="M166.97 96.8427C175.366 102.574 184.45 101.517 189.219 92.0134C189.459 91.4605 190.104 91.1342 190.65 91.4776C192.185 94.1115 191.256 98.4534 189.485 101.303C185.843 107.26 177.061 108.384 171.544 104.655C168.803 102.964 166.815 100.308 165.937 97.4664C165.745 96.8579 166.52 96.4223 166.97 96.8427Z" fill="#5B1310"/>
<path d="M119.779 113.181C128.176 118.913 137.26 117.856 142.028 108.352C142.268 107.799 142.914 107.473 143.46 107.816C144.995 110.45 144.066 114.793 142.294 117.642C138.652 123.599 129.87 124.723 124.353 120.993C121.612 119.303 119.624 116.647 118.747 113.805C118.555 113.197 119.329 112.761 119.779 113.181Z" fill="#5B1310"/>
<path d="M175.183 142.315C176.115 146.423 172.474 150.751 167.051 151.981C161.628 153.211 156.477 150.877 155.545 146.769C154.613 142.661 159.821 141.106 165.244 139.876C170.667 138.646 174.251 138.206 175.183 142.315Z" fill="#5B1310"/>
<path d="M133.818 159.871C135.033 164.663 130.634 169.912 123.993 171.595C117.352 173.279 110.983 170.758 109.769 165.966C108.554 161.174 112.954 155.925 119.594 154.242C126.235 152.558 132.604 155.079 133.818 159.871Z" fill="#FC6565"/>
<path d="M220.752 134.309C221.967 139.102 217.568 144.351 210.927 146.034C204.286 147.717 197.917 145.197 196.703 140.405C195.488 135.613 199.888 130.363 206.529 128.68C213.169 126.997 219.538 129.517 220.752 134.309Z" fill="#FC6565"/>
<path d="M217.911 67.1088C217.911 67.1088 223.578 62.9136 227.643 67.504C232.123 75.2793 215.255 82.7905 215.255 82.7905C215.255 82.7905 202.605 71.1041 209.457 64.9552C216.31 58.8068 217.911 67.1088 217.911 67.1088Z" fill="#FC6565"/>
</svg>
