<?xml version="1.0" encoding="UTF-8" standalone="no"?>
<!-- Created with Inkscape (http://www.inkscape.org/) -->

<svg
   version="1.1"
   id="svg2"
   width="1333.3333"
   height="1333.3333"
   viewBox="0 0 1333.3333 1333.3333"
   sodipodi:docname="Lost Doggo.ai"
   xmlns:inkscape="http://www.inkscape.org/namespaces/inkscape"
   xmlns:sodipodi="http://sodipodi.sourceforge.net/DTD/sodipodi-0.dtd"
   xmlns="http://www.w3.org/2000/svg"
   xmlns:svg="http://www.w3.org/2000/svg">
  <defs
     id="defs6">
    <clipPath
       clipPathUnits="userSpaceOnUse"
       id="clipPath16">
      <path
         d="M 0,1000 H 1000 V 0 H 0 Z"
         id="path14" />
    </clipPath>
    <clipPath
       clipPathUnits="userSpaceOnUse"
       id="clipPath24">
      <path
         d="M 184.623,534.513 H 815.377 V 431.307 H 184.623 Z"
         id="path22" />
    </clipPath>
    <clipPath
       clipPathUnits="userSpaceOnUse"
       id="clipPath44">
      <path
         d="m 708.497,652.968 h 66.568 V 524.789 h -66.568 z"
         id="path42" />
    </clipPath>
    <clipPath
       clipPathUnits="userSpaceOnUse"
       id="clipPath68">
      <path
         d="M 258.227,741.159 H 751.203 V 468.448 H 258.227 Z"
         id="path66" />
    </clipPath>
    <clipPath
       clipPathUnits="userSpaceOnUse"
       id="clipPath88">
      <path
         d="M 333.728,593.013 H 580.225 V 443.645 H 333.728 Z"
         id="path86" />
    </clipPath>
    <clipPath
       clipPathUnits="userSpaceOnUse"
       id="clipPath104">
      <path
         d="M 518.053,610.077 H 660.895 V 453.717 H 518.053 Z"
         id="path102" />
    </clipPath>
    <clipPath
       clipPathUnits="userSpaceOnUse"
       id="clipPath120">
      <path
         d="M 229.566,616.898 H 383.029 V 472.76 H 229.566 Z"
         id="path118" />
    </clipPath>
    <clipPath
       clipPathUnits="userSpaceOnUse"
       id="clipPath152">
      <path
         d="M 414.303,863.905 H 540.416 V 748.217 H 414.303 Z"
         id="path150" />
    </clipPath>
    <clipPath
       clipPathUnits="userSpaceOnUse"
       id="clipPath176">
      <path
         d="M 310.371,848.142 H 599.148 V 543.779 H 310.371 Z"
         id="path174" />
    </clipPath>
    <clipPath
       clipPathUnits="userSpaceOnUse"
       id="clipPath196">
      <path
         d="M 224.764,783.649 H 541.991 V 519.458 H 224.764 Z"
         id="path194" />
    </clipPath>
    <clipPath
       clipPathUnits="userSpaceOnUse"
       id="clipPath252">
      <path
         d="M 191.89,828.627 H 331.876 V 644.465 H 191.89 Z"
         id="path250" />
    </clipPath>
  </defs>
  <sodipodi:namedview
     id="namedview4"
     pagecolor="#ffffff"
     bordercolor="#000000"
     borderopacity="0.25"
     inkscape:showpageshadow="2"
     inkscape:pageopacity="0.0"
     inkscape:pagecheckerboard="0"
     inkscape:deskcolor="#d1d1d1" />
  <g
     id="g8"
     inkscape:groupmode="layer"
     inkscape:label="Lost Doggo"
     transform="matrix(1.3333333,0,0,-1.3333333,0,1333.3333)">
    <g
       id="g10">
      <g
         id="g12"
         clip-path="url(#clipPath16)">
        <g
           id="g18">
          <g
             id="g20" />
          <g
             id="g32">
            <g
               clip-path="url(#clipPath24)"
               opacity="0.5"
               id="g30">
              <g
                 transform="translate(815.3774,482.9099)"
                 id="g28">
                <path
                   d="m 0,0 c 0,-28.5 -141.199,-51.603 -315.377,-51.603 -174.178,0 -315.378,23.103 -315.378,51.603 0,28.5 141.2,51.603 315.378,51.603 C -141.199,51.603 0,28.5 0,0"
                   style="fill:#bf5b51;fill-opacity:1;fill-rule:nonzero;stroke:none"
                   id="path26" />
              </g>
            </g>
          </g>
        </g>
        <g
           id="g34"
           transform="translate(703.9293,653.5803)">
          <path
             d="M 0,0 C 0,0 64.358,2.008 70.35,-70.449 76.342,-142.906 46.67,-145.389 28.656,-91.763 10.641,-38.137 17.052,-22.588 0,0"
             style="fill:#e7c19c;fill-opacity:1;fill-rule:nonzero;stroke:none"
             id="path36" />
        </g>
        <g
           id="g38">
          <g
             id="g40" />
          <g
             id="g52">
            <g
               clip-path="url(#clipPath44)"
               opacity="0.5"
               id="g50">
              <g
                 transform="translate(769.8371,605.9676)"
                 id="g48">
                <path
                   d="m 0,0 c -1.61,-2.906 -4.841,-5.056 -8.236,-5.284 -5.012,-0.336 -9.796,2.669 -12.822,6.678 -3.026,4.009 -4.582,8.917 -5.891,13.766 -0.98,3.63 -1.859,7.371 -1.509,11.114 0.289,3.084 1.607,6.14 3.863,8.196 -11.804,8.381 -24.485,11.437 -32.644,12.531 -1.923,-1.69 -3.194,-3.866 -4.101,-6.259 11.364,-19.362 7.949,-36.85 24.088,-84.892 8.381,-24.949 19.282,-37.735 27.944,-36.999 0.132,0.015 0.264,0.029 0.396,0.045 9.745,1.305 16.516,20.037 13.354,58.268 C 3.728,-14.2 2.165,-6.65 0,0"
                   style="fill:#bf5b51;fill-opacity:1;fill-rule:nonzero;stroke:none"
                   id="path46" />
              </g>
            </g>
          </g>
        </g>
        <g
           id="g54"
           transform="translate(716.3213,645.882)">
          <path
             d="m 0,0 c 4.772,-9.584 6.68,-19.09 9.061,-30.954 2.526,-12.593 5.67,-28.261 13.324,-51.054 8.702,-25.908 18.343,-33.155 21.484,-32.609 3.816,0.788 10.707,14.371 7.651,51.333 C 47.625,-16.195 17.421,-3.434 0,0 m 43.472,-127.576 c -12.218,0 -24.489,15.135 -33.329,41.456 -7.916,23.565 -11.152,39.678 -13.748,52.624 -3.21,15.999 -5.15,25.656 -13.943,37.303 -1.454,1.927 -1.712,4.503 -0.668,6.679 1.041,2.18 3.21,3.592 5.623,3.668 0.716,0.022 70.566,1.303 76.987,-76.372 3.217,-38.904 -3.148,-62.006 -17.917,-65.049 -1.003,-0.208 -2.003,-0.309 -3.005,-0.309"
             style="fill:#5b1310;fill-opacity:1;fill-rule:nonzero;stroke:none"
             id="path56" />
        </g>
        <g
           id="g58"
           transform="translate(518.7652,458.0952)">
          <path
             d="m 0,0 c -20.242,-4.742 -41.886,-4.836 -62.372,-7.39 -30.264,-3.834 -62.356,-9.493 -91.823,1.182 -10.785,3.949 -18.713,10.999 -23.727,19.586 0,0 -65.189,-14.628 -100.924,41.598 -35.735,56.226 32.508,103.826 32.508,103.826 110.44,-79.606 233.104,-50.568 259.31,96.779 0,0 34.077,42.955 115.105,21.46 C 235.694,248.481 236.456,140.011 230.418,73.451 224.443,6.954 107.958,-20.115 0,0"
             style="fill:#e7c19c;fill-opacity:1;fill-rule:nonzero;stroke:none"
             id="path60" />
        </g>
        <g
           id="g62">
          <g
             id="g64" />
          <g
             id="g80">
            <g
               clip-path="url(#clipPath68)"
               opacity="0.5"
               id="g78">
              <g
                 transform="translate(438.4608,581.9609)"
                 id="g72">
                <path
                   d="m 0,0 c -48.612,-18.252 -108.94,-6.216 -166.033,34.937 0,0 -6.375,-4.459 -14.2,-12.229 C -116.854,-21.075 -50.012,-29.26 0,0"
                   style="fill:#fff6ee;fill-opacity:1;fill-rule:nonzero;stroke:none"
                   id="path70" />
              </g>
              <g
                 transform="translate(646.8422,735.1365)"
                 id="g76">
                <path
                   d="m 0,0 c -50.708,13.452 -83.026,1.663 -100.114,-9.044 18.589,6.447 45.266,9.594 81.191,0.064 107.616,-28.56 108.379,-137.031 102.341,-203.591 -2.046,-22.766 -17.054,-40.905 -40.229,-54.117 33.737,13.406 56.594,34.624 59.152,63.098 C 108.379,-137.03 107.617,-28.56 0,0"
                   style="fill:#fff6ee;fill-opacity:1;fill-rule:nonzero;stroke:none"
                   id="path74" />
              </g>
            </g>
          </g>
        </g>
        <g
           id="g82">
          <g
             id="g84" />
          <g
             id="g96">
            <g
               clip-path="url(#clipPath88)"
               opacity="0.5"
               id="g94">
              <g
                 transform="translate(563.4683,591.0125)"
                 id="g92">
                <path
                   d="m 0,0 c -23.281,5.246 -47.593,-0.587 -70.091,-8.676 -22.497,-8.088 -44.391,-18.504 -67.859,-22.846 -13.182,-2.439 -26.665,-2.918 -39.796,-5.628 -13.13,-2.712 -26.314,-8.001 -35.247,-18.193 -7.975,-9.1 -11.771,-21.13 -15.358,-32.774 -3.228,-10.48 -0.174,-21.905 2.519,-32.535 0.459,-1.812 4.985,-3.274 4.985,-3.274 5.324,-8.39 13.504,-15.133 24.426,-18.67 17.57,-5.622 35.843,-5.535 54.046,-3.508 -1.28,1.324 -2.744,2.467 -4.311,3.327 -6.067,3.327 -13.195,3.735 -20.004,4.808 -6.809,1.073 -14.02,3.207 -18.231,8.768 -6.491,8.573 -2.611,21.931 5.591,28.825 8.203,6.895 19.273,8.858 29.837,10.006 18.45,2.005 37.079,2.276 55.575,0.808 5.49,-0.436 11.864,-1.614 14.379,-6.61 2.73,-5.427 -0.757,-11.768 -1.874,-17.764 -1.446,-7.762 1.564,-16.216 7.553,-21.217 0.417,-0.349 0.877,-0.637 1.319,-0.95 10.151,1.311 20.254,2.895 29.987,5.568 0.535,-0.079 1.073,-0.138 1.609,-0.215 1.539,5.605 1.769,11.708 2,17.59 0.341,8.667 1.118,17.935 6.426,24.716 7.932,10.132 23.433,11.48 31.17,21.769 2.562,3.408 4.032,7.519 5.463,11.558 3.377,9.53 6.754,19.06 10.13,28.59 1.745,4.925 3.503,10.319 1.854,15.275 C 13.909,-4.672 6.65,-1.498 0,0"
                   style="fill:#bf5b51;fill-opacity:1;fill-rule:nonzero;stroke:none"
                   id="path90" />
              </g>
            </g>
          </g>
        </g>
        <g
           id="g98">
          <g
             id="g100" />
          <g
             id="g112">
            <g
               clip-path="url(#clipPath104)"
               opacity="0.5"
               id="g110">
              <g
                 transform="translate(660.8949,603.8064)"
                 id="g108">
                <path
                   d="m 0,0 c 0,0 -73.032,16.709 -71.826,-88.107 0,0 -57.169,-6.141 -44.636,-61.982 l -26.379,9.284 c 0,0 -0.875,52.724 47.204,57.328 0,0 1.544,117.806 95.637,83.477"
                   style="fill:#bf5b51;fill-opacity:1;fill-rule:nonzero;stroke:none"
                   id="path106" />
              </g>
            </g>
          </g>
        </g>
        <g
           id="g114">
          <g
             id="g116" />
          <g
             id="g128">
            <g
               clip-path="url(#clipPath120)"
               opacity="0.5"
               id="g126">
              <g
                 transform="translate(277.0785,532.2007)"
                 id="g124">
                <path
                   d="m 0,0 c 39.473,-13.658 63.325,-6.442 63.325,-6.442 l 42.625,46.924 -1.836,1.371 C 69.095,44.246 31.573,58.586 -4.651,84.697 c 0,0 -68.244,-47.6 -32.508,-103.827 15.685,-24.68 37.044,-35.704 56.076,-40.31 C -25.088,-35.379 -39.472,13.657 0,0"
                   style="fill:#bf5b51;fill-opacity:1;fill-rule:nonzero;stroke:none"
                   id="path122" />
              </g>
            </g>
          </g>
        </g>
        <g
           id="g130"
           transform="translate(562.1765,521.3718)">
          <path
             d="m 0,0 c -6.571,66.426 43.157,123.733 107.635,80.34 2.297,-1.466 0.23,-5.123 -2.207,-3.893 C 45.1,105.844 8.676,59.567 12.867,1.143 13.515,-7.285 0.854,-8.48 0,0"
             style="fill:#5b1310;fill-opacity:1;fill-rule:nonzero;stroke:none"
             id="path132" />
        </g>
        <g
           id="g134"
           transform="translate(342.2578,465.1705)">
          <path
             d="m 0,0 c -79.533,-16.426 -158.796,65.501 -96.277,135.712 6.829,7.92 14.059,14.921 22.751,21.312 2.227,1.638 5.181,1.578 7.316,0.056 44.356,-32.063 103.109,-53.683 156.781,-35.495 25.95,8.802 48.094,27.045 63.246,50.15 15.342,23.112 24.187,50.28 29.303,77.901 0.145,1.057 0.603,2.136 1.3,2.884 40.574,41.986 110.931,35.644 157.365,7.936 67.882,-46.665 78.19,-139.253 69.111,-214.799 -6.888,-40.334 -43.123,-41.74 -75.688,-49.026 -39.476,-7.97 -79.254,-15.671 -119.769,-17.024 -15.1,0.433 -28.838,-1.095 -42.973,8.285 -1.128,0.78 -1.871,1.925 -2.155,3.167 -2.953,11.775 -1.519,24.525 3.655,35.466 14.84,33.245 58.442,41.623 88.048,24.157 0.995,-0.523 1.377,-1.755 0.852,-2.751 -0.464,-0.88 -1.492,-1.277 -2.41,-0.995 -9.848,3.026 -19.974,4.598 -29.78,3.963 -23.935,-1.248 -44.659,-19.525 -47.811,-43.19 -0.571,-4.49 -0.528,-8.987 -0.027,-13.501 l -2.226,3.705 c 3.16,-2.458 9.424,-4.022 15.499,-4.658 19.239,-1.96 38.866,0.197 58.215,2.465 26.167,3.353 52.273,8.157 78.246,13.556 22.429,6.253 53.433,4.744 63.323,30.13 1.021,2.632 1.812,5.362 2.225,8.168 2.978,22.557 3.762,45.612 1.745,68.281 -4.191,62.228 -33.525,133.49 -99.738,148.495 -35.361,9.138 -78.983,7.818 -105.588,-19.859 0.001,0 1.299,2.883 1.299,2.883 C 186.29,189.544 153.928,128.77 94.742,109.36 36.583,89.659 -26.134,112.241 -73.606,146.487 c 0,0 7.47,-0.058 7.47,-0.058 C -107.149,115.674 -123.403,69.545 -80.386,32.195 -59.715,13.602 -29.008,7.837 -2.295,12.698 6.117,14.026 8.204,1.645 0,0"
             style="fill:#5b1310;fill-opacity:1;fill-rule:nonzero;stroke:none"
             id="path136" />
        </g>
        <g
           id="g138"
           transform="translate(403.5428,439.2532)">
          <path
             d="m 0,0 c -13.867,0 -27.678,1.672 -41.176,6.56 -11.675,4.276 -21.038,12.022 -27.103,22.401 -13.997,24.123 -6.598,55.749 17.204,73.581 2.857,2.138 6.903,1.555 9.042,-1.296 2.138,-2.855 1.557,-6.904 -1.297,-9.042 -21.146,-15.845 -22.883,-41.062 -13.785,-56.743 4.52,-7.739 11.565,-13.539 20.361,-16.762 25.312,-9.162 53.39,-5.472 80.544,-1.911 l 8.25,1.072 c 7.305,0.911 14.807,1.52 22.064,2.107 13.246,1.075 26.943,2.188 39.646,5.162 3.454,0.82 6.948,-1.34 7.762,-4.816 0.813,-3.472 -1.344,-6.947 -4.816,-7.761 C 103.053,9.357 88.867,8.206 75.151,7.093 68.03,6.516 60.666,5.916 53.649,5.043 L 45.474,3.98 C 30.472,2.009 15.201,0 0,0"
             style="fill:#5b1310;fill-opacity:1;fill-rule:nonzero;stroke:none"
             id="path140" />
        </g>
        <g
           id="g142"
           transform="translate(414.3028,846.2174)">
          <path
             d="M 0,0 C 0,0 63.188,25.805 86.274,15.077 109.359,4.35 135.426,-43.836 122.824,-98"
             style="fill:#e7c19c;fill-opacity:1;fill-rule:nonzero;stroke:none"
             id="path144" />
        </g>
        <g
           id="g146">
          <g
             id="g148" />
          <g
             id="g160">
            <g
               clip-path="url(#clipPath152)"
               opacity="0.5"
               id="g158">
              <g
                 transform="translate(500.5765,861.2946)"
                 id="g156">
                <path
                   d="m 0,0 c -23.085,10.727 -86.273,-15.077 -86.273,-15.077 l 0.181,-0.144 c 19.905,6.907 56.27,17.588 72.597,10.001 21.055,-9.783 44.492,-50.751 38.908,-98.971 l 11.137,-8.886 C 49.152,-58.913 23.085,-10.727 0,0"
                   style="fill:#fff6ee;fill-opacity:1;fill-rule:nonzero;stroke:none"
                   id="path154" />
              </g>
            </g>
          </g>
        </g>
        <g
           id="g162"
           transform="translate(537.1334,741.7567)">
          <path
             d="m 0,0 c -0.486,0 -0.978,0.054 -1.47,0.167 -3.475,0.811 -5.635,4.28 -4.828,7.755 11.593,49.82 -11.792,95.913 -32.982,105.759 -14.927,6.938 -57.676,-5.639 -81.109,-15.201 -3.292,-1.341 -7.074,0.236 -8.42,3.538 -1.347,3.302 0.236,7.071 3.538,8.421 6.736,2.75 66.519,26.532 91.434,14.955 C -8.162,113.466 19.522,61.89 6.285,4.996 5.592,2.012 2.936,0 0,0"
             style="fill:#5b1310;fill-opacity:1;fill-rule:nonzero;stroke:none"
             id="path164" />
        </g>
        <g
           id="g166"
           transform="translate(326.0021,826.1501)">
          <path
             d="m 0,0 c 0,0 47.857,26.272 102.079,21.386 38.143,-3.438 71.895,-26.293 90.641,-59.689 10.668,-19.006 20.125,-37.057 20.125,-37.057 0,0 57.616,-27.632 60.226,-100.883 2.61,-73.251 -63.462,-125.551 -177.796,-130.143 -114.333,-4.593 -185.797,43.201 -190.567,95.015 C -130.201,-58.211 0,0 0,0"
             style="fill:#e7c19c;fill-opacity:1;fill-rule:nonzero;stroke:none"
             id="path168" />
        </g>
        <g
           id="g170">
          <g
             id="g172" />
          <g
             id="g184">
            <g
               clip-path="url(#clipPath176)"
               opacity="0.5"
               id="g182">
              <g
                 transform="translate(599.0732,649.9077)"
                 id="g180">
                <path
                   d="m 0,0 c -2.61,73.251 -60.226,100.882 -60.226,100.882 0,0 -9.457,18.051 -20.125,37.057 -18.746,33.397 -52.498,56.252 -90.641,59.689 -54.222,4.887 -102.079,-21.385 -102.079,-21.385 0,0 -6.245,-2.793 -15.631,-8.762 4.045,2.153 49.907,25.839 101.681,21.173 38.143,-3.437 71.895,-26.293 90.641,-59.689 10.668,-19.005 20.125,-37.057 20.125,-37.057 0,0 57.616,-27.631 60.226,-100.882 1.431,-40.161 -17.826,-73.999 -54.321,-97.155 C -23.478,-83.235 1.629,-45.696 0,0"
                   style="fill:#fff6ee;fill-opacity:1;fill-rule:nonzero;stroke:none"
                   id="path178" />
              </g>
            </g>
          </g>
        </g>
        <g
           id="g186"
           transform="translate(590.6619,636.2626)">
          <path
             d="m 0,0 c -17.831,6.963 -38.432,6.498 -55.932,-1.262 -10.532,-4.67 -21.306,-12.05 -32.511,-9.371 -6.23,1.489 -11.282,5.905 -16.974,8.843 -9.699,5.006 -27.753,-0.602 -34.095,-9.058 -3.844,-5.126 -6.467,-11.305 -11.427,-15.362 -8.917,-7.294 -21.831,-5.348 -33.345,-5.735 -19.132,-0.643 -37.876,-9.204 -50.89,-23.241 -9.524,-10.274 -15.889,-23.383 -18.301,-37.167 -1.135,-6.486 -1.191,-11.151 1.205,-14.444 24.865,-5.935 53.658,-8.796 85.852,-7.502 26.603,1.068 50.555,4.75 71.675,10.647 0.188,0.374 0.3,0.782 0.46,1.17 5.44,1.263 10.944,2.663 16.546,4.284 50.677,18.517 81.499,51.549 87.913,93.219 C 6.918,-3.061 3.525,-1.376 0,0"
             style="fill:#ffffff;fill-opacity:1;fill-rule:nonzero;stroke:none"
             id="path188" />
        </g>
        <g
           id="g190">
          <g
             id="g192" />
          <g
             id="g204">
            <g
               clip-path="url(#clipPath196)"
               opacity="0.5"
               id="g202">
              <g
                 transform="translate(541.9907,550.9924)"
                 id="g200">
                <path
                   d="m 0,0 c -113.194,-43.061 -180.375,-21.021 -217.426,6.353 -20.915,15.453 -24.578,45.623 -7.265,65.026 12.716,14.252 18.026,34.183 7.573,58.08 -25.599,58.519 19.527,86.164 19.527,86.164 l -74.109,17.033 c -30.258,-33.311 -58.064,-87.775 -39.581,-168.869 4.77,-51.815 76.235,-99.608 190.568,-95.015 C -70.65,-29.217 -29.843,-18.058 0,0"
                   style="fill:#bf5b51;fill-opacity:1;fill-rule:nonzero;stroke:none"
                   id="path198" />
              </g>
            </g>
          </g>
        </g>
        <g
           id="g206"
           transform="translate(326.0009,826.1485)">
          <path
             d="M 0,0 H 0.063 Z M 88.451,15.529 C 42.292,15.529 3.529,-5.431 3.11,-5.661 2.958,-5.743 2.797,-5.822 2.643,-5.894 c -5.116,-2.299 -124.915,-58.033 -91.636,-204.04 0.063,-0.278 0.107,-0.558 0.132,-0.842 4.296,-46.629 70.27,-93.692 183.878,-89.157 108.408,4.358 174.161,51.665 171.6,123.461 -2.432,68.26 -54.368,94.222 -56.579,95.294 -1.242,0.605 -2.274,1.596 -2.914,2.823 -0.095,0.179 -9.537,18.191 -20.036,36.889 -18.03,32.128 -50.025,53.217 -85.587,56.418 -4.393,0.397 -8.758,0.577 -13.05,0.577 M 82.32,-313.103 c -86.83,-0.004 -177.476,33.988 -184.001,100.709 -18.44,81.478 9.38,136.476 35.991,168.289 27.842,33.288 59.464,48.356 62.807,49.889 4.135,2.23 51.325,26.911 105.545,22.035 39.803,-3.585 75.577,-27.122 95.691,-62.961 8.654,-15.413 16.596,-30.362 19.264,-35.417 10.694,-5.819 59.439,-36.086 61.911,-105.453 2.798,-78.516 -69.424,-132.222 -183.994,-136.826 -4.384,-0.177 -8.799,-0.265 -13.214,-0.265"
             style="fill:#5b1310;fill-opacity:1;fill-rule:nonzero;stroke:none"
             id="path208" />
        </g>
        <g
           id="g210"
           transform="translate(444.4849,652.715)">
          <path
             d="m 0,0 c 1.628,-20.448 -11.535,-38.178 -29.4,-39.601 -17.866,-1.422 -33.669,14.002 -35.297,34.45 -1.628,20.448 11.535,38.178 29.401,39.6 C -17.431,35.872 -1.628,20.448 0,0"
             style="fill:#5b1310;fill-opacity:1;fill-rule:nonzero;stroke:none"
             id="path212" />
        </g>
        <g
           id="g214"
           transform="translate(435.517,664.9264)">
          <path
             d="m 0,0 c 0.565,-7.094 -4.001,-13.244 -10.199,-13.737 -6.198,-0.494 -11.679,4.857 -12.244,11.95 -0.565,7.094 4.001,13.244 10.199,13.737 C -6.047,12.444 -0.565,7.094 0,0"
             style="fill:#ffffff;fill-opacity:1;fill-rule:nonzero;stroke:none"
             id="path216" />
        </g>
        <g
           id="g218"
           transform="translate(413.3155,646.7009)">
          <path
             d="m 0,0 c 0.282,-3.536 -1.995,-6.602 -5.084,-6.848 -3.09,-0.246 -5.822,2.421 -6.104,5.957 -0.281,3.536 1.995,6.602 5.084,6.848 C -3.014,6.203 -0.282,3.536 0,0"
             style="fill:#ffffff;fill-opacity:1;fill-rule:nonzero;stroke:none"
             id="path220" />
        </g>
        <g
           id="g222"
           transform="translate(427.0441,642.4845)">
          <path
             d="m 0,0 c 0.232,-2.914 -1.644,-5.44 -4.19,-5.643 -2.545,-0.203 -4.797,1.995 -5.029,4.909 -0.232,2.914 1.643,5.44 4.189,5.643 C -2.484,5.112 -0.232,2.914 0,0"
             style="fill:#ffffff;fill-opacity:1;fill-rule:nonzero;stroke:none"
             id="path224" />
        </g>
        <g
           id="g226"
           transform="translate(539.2326,686.1088)">
          <path
             d="m 0,0 c 1.628,-20.448 -11.535,-38.178 -29.4,-39.601 -17.866,-1.422 -33.669,14.002 -35.297,34.45 -1.628,20.448 11.535,38.178 29.401,39.6 C -17.431,35.872 -1.628,20.448 0,0"
             style="fill:#5b1310;fill-opacity:1;fill-rule:nonzero;stroke:none"
             id="path228" />
        </g>
        <g
           id="g230"
           transform="translate(530.2647,698.3201)">
          <path
             d="m 0,0 c 0.565,-7.094 -4.001,-13.244 -10.199,-13.737 -6.197,-0.494 -11.679,4.857 -12.244,11.95 -0.565,7.094 4.001,13.244 10.199,13.738 C -6.047,12.444 -0.565,7.094 0,0"
             style="fill:#ffffff;fill-opacity:1;fill-rule:nonzero;stroke:none"
             id="path232" />
        </g>
        <g
           id="g234"
           transform="translate(508.0633,680.0947)">
          <path
             d="m 0,0 c 0.282,-3.536 -1.995,-6.602 -5.084,-6.848 -3.09,-0.246 -5.822,2.421 -6.104,5.957 -0.281,3.536 1.995,6.602 5.084,6.848 C -3.014,6.203 -0.282,3.536 0,0"
             style="fill:#ffffff;fill-opacity:1;fill-rule:nonzero;stroke:none"
             id="path236" />
        </g>
        <g
           id="g238"
           transform="translate(521.7918,675.8782)">
          <path
             d="m 0,0 c 0.232,-2.914 -1.644,-5.44 -4.19,-5.643 -2.545,-0.203 -4.797,1.995 -5.029,4.909 -0.232,2.914 1.643,5.44 4.189,5.643 C -2.484,5.112 -0.232,2.914 0,0"
             style="fill:#ffffff;fill-opacity:1;fill-rule:nonzero;stroke:none"
             id="path240" />
        </g>
        <g
           id="g242"
           transform="translate(340.3857,817.0365)">
          <path
             d="m 0,0 c 0,0 -56.961,23.942 -85.842,3.003 -28.881,-20.939 -43.862,-73.39 -48.579,-85.674 -4.717,-12.284 -48.451,-74.273 46.99,-89.455 5.521,-0.607 10.59,-0.563 15.214,-0.057 20.75,2.274 36.064,20.501 35.007,41.348 -0.816,16.098 -0.324,37.391 6.098,51.212 11.493,24.732 35.126,29.202 35.126,29.202"
             style="fill:#e7c19c;fill-opacity:1;fill-rule:nonzero;stroke:none"
             id="path244" />
        </g>
        <g
           id="g246">
          <g
             id="g248" />
          <g
             id="g260">
            <g
               clip-path="url(#clipPath252)"
               opacity="0.5"
               id="g258">
              <g
                 transform="translate(303.1761,686.2018)"
                 id="g256">
                <path
                   d="m 0,0 c -0.816,16.098 -0.325,37.391 6.098,51.212 5.614,12.08 14.115,19.304 21.353,23.556 -53.48,-5.505 -43.528,-69.837 -79.408,-63.31 -35.88,6.528 -10.139,56.074 8.024,93.06 18.162,36.987 72.633,25.727 72.633,25.727 l -7.928,6.173 c -19.071,5.499 -50.325,11.252 -69.404,-2.58 -28.881,-20.939 -43.862,-73.39 -48.579,-85.674 -4.718,-12.284 -48.452,-74.273 46.99,-89.455 5.521,-0.607 10.589,-0.563 15.214,-0.057 C -14.257,-39.074 1.057,-20.848 0,0"
                   style="fill:#bf5b51;fill-opacity:1;fill-rule:nonzero;stroke:none"
                   id="path254" />
              </g>
            </g>
          </g>
        </g>
        <g
           id="g262"
           transform="translate(339.6753,815.3464)">
          <path
             d="m 0,0 c -26.637,6.125 -60.415,15.737 -83.924,-2.135 -22.292,-19.766 -32.23,-49.145 -41.925,-77.21 -0.676,-2.313 -2.153,-5.932 -3.147,-7.922 -22.221,-40.547 -12.431,-64.332 33.399,-74.165 21.817,-6.662 47.593,-0.275 52.143,24.845 1.178,15.341 -0.613,30.695 3.418,46.026 4.147,21.599 22.584,40.381 44.509,43.163 1.621,0.231 2.143,-2.276 0.504,-2.666 -35.096,-13.128 -37.451,-47.812 -35.01,-79.733 1.367,-32.704 -30.144,-53.828 -60.671,-47.145 -23.952,4.052 -53.449,13.377 -62.157,39.13 -7.724,24.747 7.321,46.746 14.098,63 6.814,19.358 14.419,39.234 25.892,57.313 20.522,33.978 47.255,42.495 84.987,32.243 C -24.823,14.258 12.26,2.219 0,0"
             style="fill:#5b1310;fill-opacity:1;fill-rule:nonzero;stroke:none"
             id="path264" />
        </g>
        <g
           id="g266"
           transform="translate(443.5547,575.8904)">
          <path
             d="M 0,0 C -0.997,0 -2.012,0.23 -2.961,0.722 -6.128,2.359 -7.37,6.257 -5.73,9.427 -1.157,18.27 4.936,23.612 12.382,25.306 19.913,27.015 28.198,24.7 36.297,18.588 39.141,16.437 39.709,12.388 37.561,9.54 35.414,6.702 31.364,6.128 28.513,8.276 25.057,10.887 19.941,13.766 15.245,12.71 11.685,11.899 8.487,8.799 5.743,3.491 4.595,1.271 2.34,0 0,0"
             style="fill:#5b1310;fill-opacity:1;fill-rule:nonzero;stroke:none"
             id="path268" />
        </g>
        <g
           id="g270"
           transform="translate(472.9803,729.5864)">
          <path
             d="m 0,0 c 17.677,-12.066 36.801,-9.841 46.84,10.167 0.505,1.164 1.864,1.851 3.014,1.128 C 53.085,5.75 51.13,-3.391 47.4,-9.39 39.733,-21.931 21.244,-24.298 9.63,-16.446 3.859,-12.887 -0.326,-7.296 -2.174,-1.313 -2.578,-0.032 -0.947,0.885 0,0"
             style="fill:#5b1310;fill-opacity:1;fill-rule:nonzero;stroke:none"
             id="path272" />
        </g>
        <g
           id="g274"
           transform="translate(373.6319,695.1893)">
          <path
             d="m 0,0 c 17.677,-12.067 36.801,-9.841 46.84,10.167 0.505,1.165 1.864,1.851 3.014,1.128 C 53.085,5.75 51.13,-3.392 47.399,-9.39 39.733,-21.931 21.244,-24.298 9.63,-16.446 3.859,-12.887 -0.326,-7.296 -2.174,-1.313 -2.578,-0.032 -0.947,0.885 0,0"
             style="fill:#5b1310;fill-opacity:1;fill-rule:nonzero;stroke:none"
             id="path276" />
        </g>
        <g
           id="g278"
           transform="translate(490.2714,633.8563)">
          <path
             d="m 0,0 c 1.962,-8.649 -5.703,-17.76 -17.12,-20.35 -11.417,-2.589 -22.262,2.323 -24.224,10.972 -1.962,8.649 9.003,11.922 20.42,14.512 C -9.507,7.723 -1.962,8.649 0,0"
             style="fill:#5b1310;fill-opacity:1;fill-rule:nonzero;stroke:none"
             id="path280" />
        </g>
        <g
           id="g282"
           transform="translate(403.188,596.8957)">
          <path
             d="m 0,0 c 2.557,-10.089 -6.704,-21.14 -20.686,-24.683 -13.981,-3.544 -27.388,1.762 -29.945,11.851 -2.557,10.088 6.705,21.14 20.686,24.683 C -15.964,15.395 -2.557,10.089 0,0"
             style="fill:#fc6565;fill-opacity:1;fill-rule:nonzero;stroke:none"
             id="path284" />
        </g>
        <g
           id="g286"
           transform="translate(586.207,650.7092)">
          <path
             d="m 0,0 c 2.557,-10.089 -6.704,-21.14 -20.686,-24.683 -13.981,-3.544 -27.388,1.762 -29.945,11.851 -2.557,10.088 6.705,21.14 20.686,24.683 C -15.964,15.395 -2.557,10.089 0,0"
             style="fill:#fc6565;fill-opacity:1;fill-rule:nonzero;stroke:none"
             id="path288" />
        </g>
        <g
           id="g290"
           transform="translate(580.2251,792.1841)">
          <path
             d="m 0,0 c 0,0 11.931,8.832 20.488,-0.832 9.432,-16.369 -26.079,-32.182 -26.079,-32.182 0,0 -26.633,24.603 -12.207,37.548 C -3.371,17.478 0,0 0,0"
             style="fill:#fc6565;fill-opacity:1;fill-rule:nonzero;stroke:none"
             id="path292" />
        </g>
        <g
           id="g294"
           transform="translate(317.7581,251.9168)">
          <path
             d="m 0,0 c 18.254,6.255 31.76,-15.253 15.754,-29.507 -3.251,-2.75 -7.501,-4.752 -11.253,-6.001 -21.756,-6.252 -43.765,-6.005 -65.771,-3.252 -14.756,2.249 -22.257,9.253 -25.007,23.507 -2.002,10.502 -3.004,20.756 -3.251,31.011 -1.253,37.761 -2.252,75.274 -2.754,112.784 -0.247,4.003 -0.247,8.253 0.251,12.256 1.25,10.001 9.005,16.252 19.256,15.755 9.503,-0.502 16.507,-7.255 17.008,-17.008 0.748,-17.505 1.249,-35.011 1.747,-52.516 0.501,-26.009 1.253,-52.015 1.751,-77.773 0,-4.254 0.752,-8.755 1.003,-13.757 C -35.011,-5.75 -14.755,-4.751 0,0"
             style="fill:#5b1310;fill-opacity:1;fill-rule:nonzero;stroke:none"
             id="path296" />
        </g>
        <g
           id="g298"
           transform="translate(425.7942,316.4384)">
          <path
             d="M 0,0 C -45.265,3.251 -46.014,-80.527 -2.75,-77.025 38.512,-73.774 41.764,-3.251 0,0 m -69.774,-42.014 c 0.501,50.267 34.011,72.273 68.023,72.023 90.28,-1.25 90.527,-131.292 3.001,-138.543 -35.512,-3 -71.522,18.007 -71.024,66.52"
             style="fill:#5b1310;fill-opacity:1;fill-rule:nonzero;stroke:none"
             id="path300" />
        </g>
        <g
           id="g302"
           transform="translate(593.3499,319.9402)">
          <path
             d="m 0,0 c -23.506,18.755 -41.764,-1.751 -23.757,-18.257 14.254,-13.252 36.762,-19.256 49.766,-32.508 9.754,-9.754 12.002,-24.258 8.5,-36.762 -5.249,-19.256 -23.757,-27.509 -40.51,-29.511 -25.759,-3 -53.769,9.002 -72.023,25.007 -22.507,19.256 8.751,39.264 22.758,27.509 11.254,-5.75 22.755,-16.502 35.011,-19.256 16.753,-3 25.508,7.254 12.252,18.257 -17.254,12.002 -36.51,17.255 -49.515,32.261 -8.253,9.503 -12.503,20.005 -12.253,30.26 0.749,41.512 56.018,50.765 84.025,36.26 C 24.008,28.508 33.26,20.757 32.01,9.252 30.259,-3.251 14.505,-11.755 0,0"
             style="fill:#5b1310;fill-opacity:1;fill-rule:nonzero;stroke:none"
             id="path304" />
        </g>
        <g
           id="g306"
           transform="translate(751.904,329.1924)">
          <path
             d="m 0,0 c 3.251,-0.251 6.252,-0.498 9.252,-1.25 7.505,-2.001 12.754,-7.752 12.503,-14.755 -0.247,-7 -6.498,-13.255 -14.003,-14.756 -3.502,-0.748 -6.252,-0.748 -9.754,-0.497 -14.504,0.999 -26.757,1.998 -38.759,1.751 -2.503,-27.76 1.747,-84.029 33.51,-52.269 17.753,17.007 41.513,-7.251 23.757,-25.007 -10.505,-10.752 -26.761,-17.255 -38.763,-17.756 -51.517,-1.751 -55.516,55.517 -55.767,95.032 -5.503,0.999 -11.254,0.497 -16.506,2.248 -7.251,2.252 -12.002,8.003 -12.002,14.505 0,11.504 11.751,15.006 20.506,15.755 3,0.25 6.251,0 10.004,0 2.499,17.258 3.999,34.512 5.75,51.517 0.251,1.75 0.501,4.003 0.999,6.251 5.754,21.509 38.763,16.507 36.264,-5.252 C -35.011,37.263 -37.513,19.758 -38.763,2.252 -25.257,1.751 -12.503,0.752 0,0"
             style="fill:#5b1310;fill-opacity:1;fill-rule:nonzero;stroke:none"
             id="path308" />
        </g>
        <g
           id="g310"
           transform="translate(330.4316,177.4662)">
          <path
             d="m 0,0 v -37.661 h 5.617 c 4.549,0 8.022,1.485 10.424,4.455 2.401,2.97 3.629,7.22 3.681,12.747 v 2.983 c 0,5.735 -1.189,10.082 -3.563,13.039 C 13.779,-1.479 10.306,0 5.735,0 Z M -11.626,-47.001 V 9.417 H 5.735 c 4.959,0 9.395,-1.119 13.31,-3.352 3.912,-2.234 6.966,-5.413 9.162,-9.532 2.197,-4.12 3.294,-8.802 3.294,-14.046 v -2.598 c 0,-5.244 -1.079,-9.904 -3.235,-13.987 -2.156,-4.082 -5.197,-7.245 -9.125,-9.491 -3.927,-2.25 -8.357,-3.387 -13.291,-3.412 z"
             style="fill:#fc6565;fill-opacity:1;fill-rule:nonzero;stroke:none"
             id="path312" />
        </g>
        <g
           id="g314"
           transform="translate(430.3362,159.9528)">
          <path
             d="m 0,0 c 0,5.915 -1.059,10.411 -3.178,13.484 -2.116,3.073 -5.139,4.61 -9.066,4.61 -3.902,0 -6.91,-1.516 -9.029,-4.551 -2.119,-3.036 -3.191,-7.485 -3.215,-13.35 v -2.75 c 0,-5.76 1.059,-10.231 3.178,-13.406 2.116,-3.178 5.164,-4.766 9.143,-4.766 3.9,0 6.898,1.529 8.989,4.589 2.094,3.063 3.153,7.525 3.178,13.387 z m 11.778,-2.557 c 0,-5.555 -0.982,-10.423 -2.942,-14.608 -1.964,-4.185 -4.775,-7.413 -8.429,-9.688 -3.657,-2.274 -7.845,-3.408 -12.574,-3.408 -4.675,0 -8.848,1.122 -12.514,3.371 -3.669,2.246 -6.512,5.456 -8.525,9.628 -2.017,4.17 -3.036,8.97 -3.06,14.394 v 2.79 c 0,5.555 1,10.443 3.001,14.668 2.001,4.222 4.831,7.463 8.485,9.724 3.656,2.259 7.835,3.39 12.536,3.39 4.701,0 8.879,-1.131 12.536,-3.39 3.654,-2.261 6.481,-5.502 8.485,-9.724 2.001,-4.225 3.001,-9.1 3.001,-14.63 z"
             style="fill:#fc6565;fill-opacity:1;fill-rule:nonzero;stroke:none"
             id="path316" />
        </g>
        <g
           id="g318"
           transform="translate(520.597,137.5957)">
          <path
             d="m 0,0 c -2.094,-2.507 -5.052,-4.452 -8.873,-5.832 -3.825,-1.382 -8.059,-2.072 -12.71,-2.072 -4.881,0 -9.166,1.066 -12.844,3.194 -3.682,2.131 -6.525,5.226 -8.525,9.28 -2.004,4.058 -3.03,8.824 -3.082,14.301 v 3.834 c 0,5.633 0.95,10.507 2.849,14.627 1.898,4.12 4.635,7.273 8.214,9.454 3.576,2.185 7.77,3.275 12.574,3.275 6.689,0 11.921,-1.594 15.692,-4.785 3.772,-3.19 6.006,-7.832 6.705,-13.931 h -11.315 c -0.516,3.231 -1.659,5.593 -3.43,7.093 -1.768,1.498 -4.204,2.246 -7.304,2.246 -3.952,0 -6.96,-1.485 -9.029,-4.455 -2.066,-2.97 -3.113,-7.388 -3.138,-13.251 v -3.604 c 0,-5.915 1.125,-10.386 3.371,-13.409 2.249,-3.02 5.543,-4.533 9.883,-4.533 4.365,0 7.478,0.932 9.336,2.79 v 9.728 h -10.579 v 8.562 l 22.205,0 z"
             style="fill:#fc6565;fill-opacity:1;fill-rule:nonzero;stroke:none"
             id="path320" />
        </g>
        <g
           id="g322"
           transform="translate(600.0428,137.5957)">
          <path
             d="m 0,0 c -2.094,-2.507 -5.052,-4.452 -8.873,-5.832 -3.825,-1.382 -8.059,-2.072 -12.71,-2.072 -4.881,0 -9.166,1.066 -12.844,3.194 -3.682,2.131 -6.525,5.226 -8.525,9.28 -2.004,4.058 -3.03,8.824 -3.082,14.301 v 3.834 c 0,5.633 0.95,10.507 2.849,14.627 1.898,4.12 4.635,7.273 8.214,9.454 3.576,2.185 7.77,3.275 12.574,3.275 6.689,0 11.921,-1.594 15.692,-4.785 3.772,-3.19 6.006,-7.832 6.705,-13.931 h -11.315 c -0.516,3.231 -1.659,5.593 -3.43,7.093 -1.768,1.498 -4.204,2.246 -7.304,2.246 -3.952,0 -6.96,-1.485 -9.029,-4.455 -2.066,-2.97 -3.113,-7.388 -3.138,-13.251 v -3.604 c 0,-5.915 1.125,-10.386 3.371,-13.409 2.249,-3.02 5.543,-4.533 9.883,-4.533 4.365,0 7.478,0.932 9.336,2.79 v 9.728 h -10.579 v 8.562 l 22.205,0 z"
             style="fill:#fc6565;fill-opacity:1;fill-rule:nonzero;stroke:none"
             id="path324" />
        </g>
        <g
           id="g326"
           transform="translate(669.4161,159.9528)">
          <path
             d="m 0,0 c 0,5.915 -1.059,10.411 -3.178,13.484 -2.116,3.073 -5.139,4.61 -9.066,4.61 -3.902,0 -6.91,-1.516 -9.029,-4.551 -2.119,-3.036 -3.191,-7.485 -3.215,-13.35 v -2.75 c 0,-5.76 1.059,-10.231 3.178,-13.406 2.116,-3.178 5.164,-4.766 9.143,-4.766 3.9,0 6.898,1.529 8.989,4.589 2.094,3.063 3.153,7.525 3.178,13.387 z m 11.778,-2.557 c 0,-5.555 -0.982,-10.423 -2.942,-14.608 -1.964,-4.185 -4.775,-7.413 -8.429,-9.688 -3.657,-2.274 -7.845,-3.408 -12.574,-3.408 -4.675,0 -8.848,1.122 -12.514,3.371 -3.669,2.246 -6.512,5.456 -8.525,9.628 -2.017,4.17 -3.036,8.97 -3.061,14.394 v 2.79 c 0,5.555 1.001,10.443 3.002,14.668 2.001,4.222 4.831,7.463 8.485,9.724 3.656,2.259 7.835,3.39 12.536,3.39 4.7,0 8.879,-1.131 12.536,-3.39 3.654,-2.261 6.481,-5.502 8.485,-9.724 2.001,-4.225 3.001,-9.1 3.001,-14.63 z"
             style="fill:#fc6565;fill-opacity:1;fill-rule:nonzero;stroke:none"
             id="path328" />
        </g>
      </g>
    </g>
  </g>
</svg>
